<svg width="701" height="206" viewBox="0 0 701 206" fill="none" xmlns="http://www.w3.org/2000/svg">
<rect width="2" height="206" fill="#707376"/>
<rect width="699" height="2" transform="matrix(1 0 0 -1 2 206)" fill="#707376"/>
<rect x="2" y="13" width="3" height="2" fill="#707376"/>
<rect x="2" y="62" width="3" height="2" fill="#707376"/>
<rect x="2" y="118" width="3" height="2" fill="#707376"/>
<rect x="2" y="165" width="3" height="2" fill="#707376"/>
<rect x="9" y="13" width="4" height="2" fill="#707376"/>
<rect x="9" y="62" width="4" height="2" fill="#707376"/>
<rect x="9" y="118" width="4" height="2" fill="#707376"/>
<rect x="9" y="165" width="4" height="2" fill="#707376"/>
<rect x="33" y="13" width="4" height="2" fill="#707376"/>
<rect x="33" y="62" width="4" height="2" fill="#707376"/>
<rect x="33" y="165" width="4" height="2" fill="#707376"/>
<rect x="57" y="13" width="4" height="2" fill="#707376"/>
<rect x="57" y="62" width="4" height="2" fill="#707376"/>
<rect x="57" y="118" width="4" height="2" fill="#707376"/>
<rect x="57" y="165" width="4" height="2" fill="#707376"/>
<rect x="81" y="13" width="4" height="2" fill="#707376"/>
<rect x="81" y="62" width="4" height="2" fill="#707376"/>
<rect x="81" y="118" width="4" height="2" fill="#707376"/>
<rect x="81" y="165" width="4" height="2" fill="#707376"/>
<rect x="105" y="13" width="4" height="2" fill="#707376"/>
<rect x="105" y="62" width="4" height="2" fill="#707376"/>
<rect x="129" y="13" width="4" height="2" fill="#707376"/>
<rect x="129" y="62" width="4" height="2" fill="#707376"/>
<rect x="129" y="118" width="4" height="2" fill="#707376"/>
<rect x="129" y="165" width="4" height="2" fill="#707376"/>
<rect x="153" y="13" width="4" height="2" fill="#707376"/>
<rect x="153" y="62" width="4" height="2" fill="#707376"/>
<rect x="153" y="165" width="4" height="2" fill="#707376"/>
<rect x="177" y="13" width="4" height="2" fill="#707376"/>
<rect x="177" y="62" width="4" height="2" fill="#707376"/>
<rect x="177" y="118" width="4" height="2" fill="#707376"/>
<rect x="177" y="165" width="4" height="2" fill="#707376"/>
<rect x="201" y="13" width="4" height="2" fill="#707376"/>
<rect x="209" y="13" width="4" height="2" fill="#707376"/>
<rect x="201" y="62" width="4" height="2" fill="#707376"/>
<rect x="209" y="62" width="4" height="2" fill="#707376"/>
<rect x="201" y="118" width="4" height="2" fill="#707376"/>
<rect x="209" y="118" width="4" height="2" fill="#707376"/>
<rect x="201" y="165" width="4" height="2" fill="#707376"/>
<rect x="225" y="165" width="4" height="2" fill="#707376"/>
<rect x="249" y="13" width="4" height="2" fill="#707376"/>
<rect x="249" y="62" width="4" height="2" fill="#707376"/>
<rect x="249" y="118" width="4" height="2" fill="#707376"/>
<rect x="249" y="165" width="4" height="2" fill="#707376"/>
<rect x="273" y="13" width="4" height="2" fill="#707376"/>
<rect x="273" y="62" width="4" height="2" fill="#707376"/>
<rect x="297" y="13" width="4" height="2" fill="#707376"/>
<rect x="297" y="62" width="4" height="2" fill="#707376"/>
<rect x="297" y="165" width="4" height="2" fill="#707376"/>
<rect x="465" y="13" width="4" height="2" fill="#707376"/>
<rect x="465" y="62" width="4" height="2" fill="#707376"/>
<rect x="465" y="165" width="4" height="2" fill="#707376"/>
<rect x="321" y="13" width="4" height="2" fill="#707376"/>
<rect x="321" y="62" width="4" height="2" fill="#707376"/>
<rect x="321" y="118" width="4" height="2" fill="#707376"/>
<rect x="321" y="165" width="4" height="2" fill="#707376"/>
<rect x="489" y="13" width="4" height="2" fill="#707376"/>
<rect x="489" y="62" width="4" height="2" fill="#707376"/>
<rect x="489" y="118" width="4" height="2" fill="#707376"/>
<rect x="489" y="165" width="4" height="2" fill="#707376"/>
<rect x="345" y="13" width="4" height="2" fill="#707376"/>
<rect x="345" y="62" width="4" height="2" fill="#707376"/>
<rect x="513" y="13" width="4" height="2" fill="#707376"/>
<rect x="513" y="62" width="4" height="2" fill="#707376"/>
<rect x="513" y="118" width="4" height="2" fill="#707376"/>
<rect x="521" y="118" width="4" height="2" fill="#707376"/>
<rect x="545" y="118" width="4" height="2" fill="#707376"/>
<rect x="513" y="165" width="4" height="2" fill="#707376"/>
<rect x="369" y="13" width="4" height="2" fill="#707376"/>
<rect x="369" y="62" width="4" height="2" fill="#707376"/>
<rect x="369" y="118" width="4" height="2" fill="#707376"/>
<rect x="369" y="165" width="4" height="2" fill="#707376"/>
<rect x="537" y="13" width="4" height="2" fill="#707376"/>
<rect x="537" y="62" width="4" height="2" fill="#707376"/>
<rect x="537" y="165" width="4" height="2" fill="#707376"/>
<rect x="393" y="13" width="4" height="2" fill="#707376"/>
<rect x="393" y="62" width="4" height="2" fill="#707376"/>
<rect x="393" y="118" width="4" height="2" fill="#707376"/>
<rect x="393" y="165" width="4" height="2" fill="#707376"/>
<rect x="561" y="13" width="4" height="2" fill="#707376"/>
<rect x="561" y="62" width="4" height="2" fill="#707376"/>
<rect x="561" y="118" width="4" height="2" fill="#707376"/>
<rect x="561" y="165" width="4" height="2" fill="#707376"/>
<rect x="417" y="13" width="4" height="2" fill="#707376"/>
<rect x="417" y="62" width="4" height="2" fill="#707376"/>
<rect x="585" y="13" width="4" height="2" fill="#707376"/>
<rect x="585" y="62" width="4" height="2" fill="#707376"/>
<rect x="649" y="13" width="4" height="2" fill="#707376"/>
<rect x="649" y="62" width="4" height="2" fill="#707376"/>
<rect x="649" y="165" width="4" height="2" fill="#707376"/>
<rect x="441" y="13" width="4" height="2" fill="#707376"/>
<rect x="441" y="62" width="4" height="2" fill="#707376"/>
<rect x="441" y="118" width="4" height="2" fill="#707376"/>
<rect x="441" y="165" width="4" height="2" fill="#707376"/>
<rect x="609" y="13" width="4" height="2" fill="#707376"/>
<rect x="609" y="62" width="4" height="2" fill="#707376"/>
<rect x="673" y="13" width="4" height="2" fill="#707376"/>
<rect x="673" y="62" width="4" height="2" fill="#707376"/>
<rect x="673" y="118" width="4" height="2" fill="#707376"/>
<rect x="673" y="165" width="4" height="2" fill="#707376"/>
<rect x="17" y="13" width="4" height="2" fill="#707376"/>
<rect x="17" y="62" width="4" height="2" fill="#707376"/>
<rect x="17" y="118" width="4" height="2" fill="#707376"/>
<rect x="17" y="165" width="4" height="2" fill="#707376"/>
<rect x="41" y="13" width="4" height="2" fill="#707376"/>
<rect x="41" y="62" width="4" height="2" fill="#707376"/>
<rect x="41" y="165" width="4" height="2" fill="#707376"/>
<rect x="65" y="13" width="4" height="2" fill="#707376"/>
<rect x="65" y="62" width="4" height="2" fill="#707376"/>
<rect x="65" y="118" width="4" height="2" fill="#707376"/>
<rect x="65" y="165" width="4" height="2" fill="#707376"/>
<rect x="89" y="13" width="4" height="2" fill="#707376"/>
<rect x="89" y="62" width="4" height="2" fill="#707376"/>
<rect x="113" y="13" width="4" height="2" fill="#707376"/>
<rect x="113" y="62" width="4" height="2" fill="#707376"/>
<rect x="113" y="118" width="4" height="2" fill="#707376"/>
<rect x="105" y="118" width="4" height="2" fill="#707376"/>
<rect x="113" y="165" width="4" height="2" fill="#707376"/>
<rect x="137" y="13" width="4" height="2" fill="#707376"/>
<rect x="137" y="62" width="4" height="2" fill="#707376"/>
<rect x="137" y="118" width="4" height="2" fill="#707376"/>
<rect x="145" y="118" width="4" height="2" fill="#707376"/>
<rect x="137" y="165" width="4" height="2" fill="#707376"/>
<rect x="161" y="13" width="4" height="2" fill="#707376"/>
<rect x="161" y="62" width="4" height="2" fill="#707376"/>
<rect x="161" y="165" width="4" height="2" fill="#707376"/>
<rect x="185" y="13" width="4" height="2" fill="#707376"/>
<rect x="185" y="62" width="4" height="2" fill="#707376"/>
<rect x="185" y="118" width="4" height="2" fill="#707376"/>
<rect x="185" y="165" width="4" height="2" fill="#707376"/>
<rect x="209" y="165" width="4" height="2" fill="#707376"/>
<rect x="233" y="165" width="4" height="2" fill="#707376"/>
<rect x="257" y="13" width="4" height="2" fill="#707376"/>
<rect x="257" y="62" width="4" height="2" fill="#707376"/>
<rect x="257" y="118" width="4" height="2" fill="#707376"/>
<rect x="257" y="165" width="4" height="2" fill="#707376"/>
<rect x="281" y="13" width="4" height="2" fill="#707376"/>
<rect x="281" y="62" width="4" height="2" fill="#707376"/>
<rect x="305" y="13" width="4" height="2" fill="#707376"/>
<rect x="305" y="62" width="4" height="2" fill="#707376"/>
<rect x="305" y="118" width="4" height="2" fill="#707376"/>
<rect x="297" y="118" width="4" height="2" fill="#707376"/>
<rect x="305" y="165" width="4" height="2" fill="#707376"/>
<rect x="473" y="13" width="4" height="2" fill="#707376"/>
<rect x="473" y="62" width="4" height="2" fill="#707376"/>
<rect x="473" y="165" width="4" height="2" fill="#707376"/>
<rect x="329" y="13" width="4" height="2" fill="#707376"/>
<rect x="329" y="62" width="4" height="2" fill="#707376"/>
<rect x="329" y="118" width="4" height="2" fill="#707376"/>
<rect x="337" y="118" width="4" height="2" fill="#707376"/>
<rect x="329" y="165" width="4" height="2" fill="#707376"/>
<rect x="337" y="165" width="4" height="2" fill="#707376"/>
<rect x="497" y="13" width="4" height="2" fill="#707376"/>
<rect x="497" y="62" width="4" height="2" fill="#707376"/>
<rect x="497" y="118" width="4" height="2" fill="#707376"/>
<rect x="497" y="165" width="4" height="2" fill="#707376"/>
<rect x="353" y="13" width="4" height="2" fill="#707376"/>
<rect x="353" y="62" width="4" height="2" fill="#707376"/>
<rect x="521" y="13" width="4" height="2" fill="#707376"/>
<rect x="521" y="62" width="4" height="2" fill="#707376"/>
<rect x="521" y="165" width="4" height="2" fill="#707376"/>
<rect x="377" y="13" width="4" height="2" fill="#707376"/>
<rect x="377" y="62" width="4" height="2" fill="#707376"/>
<rect x="377" y="118" width="4" height="2" fill="#707376"/>
<rect x="377" y="165" width="4" height="2" fill="#707376"/>
<rect x="545" y="13" width="4" height="2" fill="#707376"/>
<rect x="545" y="62" width="4" height="2" fill="#707376"/>
<rect x="545" y="165" width="4" height="2" fill="#707376"/>
<rect x="401" y="13" width="4" height="2" fill="#707376"/>
<rect x="401" y="62" width="4" height="2" fill="#707376"/>
<rect x="569" y="13" width="4" height="2" fill="#707376"/>
<rect x="569" y="62" width="4" height="2" fill="#707376"/>
<rect x="569" y="118" width="4" height="2" fill="#707376"/>
<rect x="569" y="165" width="4" height="2" fill="#707376"/>
<rect x="633" y="13" width="4" height="2" fill="#707376"/>
<rect x="633" y="62" width="4" height="2" fill="#707376"/>
<rect x="633" y="118" width="4" height="2" fill="#707376"/>
<rect x="633" y="165" width="4" height="2" fill="#707376"/>
<rect x="425" y="13" width="4" height="2" fill="#707376"/>
<rect x="425" y="62" width="4" height="2" fill="#707376"/>
<rect x="425" y="118" width="4" height="2" fill="#707376"/>
<rect x="425" y="165" width="4" height="2" fill="#707376"/>
<rect x="417" y="165" width="4" height="2" fill="#707376"/>
<rect x="593" y="13" width="4" height="2" fill="#707376"/>
<rect x="593" y="62" width="4" height="2" fill="#707376"/>
<rect x="657" y="13" width="4" height="2" fill="#707376"/>
<rect x="657" y="62" width="4" height="2" fill="#707376"/>
<rect x="657" y="165" width="4" height="2" fill="#707376"/>
<rect x="449" y="13" width="4" height="2" fill="#707376"/>
<rect x="449" y="62" width="4" height="2" fill="#707376"/>
<rect x="449" y="118" width="4" height="2" fill="#707376"/>
<rect x="449" y="165" width="4" height="2" fill="#707376"/>
<rect x="617" y="13" width="4" height="2" fill="#707376"/>
<rect x="617" y="62" width="4" height="2" fill="#707376"/>
<rect x="617" y="118" width="4" height="2" fill="#707376"/>
<rect x="617" y="165" width="4" height="2" fill="#707376"/>
<rect x="609" y="165" width="4" height="2" fill="#707376"/>
<rect x="681" y="13" width="4" height="2" fill="#707376"/>
<rect x="681" y="62" width="4" height="2" fill="#707376"/>
<rect x="681" y="118" width="4" height="2" fill="#707376"/>
<rect x="681" y="165" width="4" height="2" fill="#707376"/>
<rect x="25" y="13" width="4" height="2" fill="#707376"/>
<rect x="25" y="62" width="4" height="2" fill="#707376"/>
<rect x="25" y="165" width="4" height="2" fill="#707376"/>
<rect x="49" y="13" width="4" height="2" fill="#707376"/>
<rect x="49" y="62" width="4" height="2" fill="#707376"/>
<rect x="49" y="118" width="4" height="2" fill="#707376"/>
<rect x="49" y="165" width="4" height="2" fill="#707376"/>
<rect x="73" y="13" width="4" height="2" fill="#707376"/>
<rect x="73" y="62" width="4" height="2" fill="#707376"/>
<rect x="73" y="118" width="4" height="2" fill="#707376"/>
<rect x="73" y="165" width="4" height="2" fill="#707376"/>
<rect x="97" y="13" width="4" height="2" fill="#707376"/>
<rect x="97" y="62" width="4" height="2" fill="#707376"/>
<rect x="121" y="13" width="4" height="2" fill="#707376"/>
<rect x="121" y="62" width="4" height="2" fill="#707376"/>
<rect x="121" y="118" width="4" height="2" fill="#707376"/>
<rect x="121" y="165" width="4" height="2" fill="#707376"/>
<rect x="145" y="13" width="4" height="2" fill="#707376"/>
<rect x="145" y="62" width="4" height="2" fill="#707376"/>
<rect x="145" y="165" width="4" height="2" fill="#707376"/>
<rect x="169" y="13" width="4" height="2" fill="#707376"/>
<rect x="169" y="62" width="4" height="2" fill="#707376"/>
<rect x="169" y="165" width="4" height="2" fill="#707376"/>
<rect x="193" y="13" width="4" height="2" fill="#707376"/>
<rect x="193" y="62" width="4" height="2" fill="#707376"/>
<rect x="193" y="118" width="4" height="2" fill="#707376"/>
<rect x="193" y="165" width="4" height="2" fill="#707376"/>
<rect x="217" y="165" width="4" height="2" fill="#707376"/>
<rect x="241" y="13" width="4" height="2" fill="#707376"/>
<rect x="233" y="13" width="4" height="2" fill="#707376"/>
<rect x="241" y="62" width="4" height="2" fill="#707376"/>
<rect x="233" y="62" width="4" height="2" fill="#707376"/>
<rect x="241" y="118" width="4" height="2" fill="#707376"/>
<rect x="233" y="118" width="4" height="2" fill="#707376"/>
<rect x="241" y="165" width="4" height="2" fill="#707376"/>
<rect x="265" y="13" width="4" height="2" fill="#707376"/>
<rect x="265" y="62" width="4" height="2" fill="#707376"/>
<rect x="265" y="118" width="4" height="2" fill="#707376"/>
<rect x="273" y="118" width="4" height="2" fill="#707376"/>
<rect x="265" y="165" width="4" height="2" fill="#707376"/>
<rect x="273" y="165" width="4" height="2" fill="#707376"/>
<rect x="289" y="13" width="4" height="2" fill="#707376"/>
<rect x="289" y="62" width="4" height="2" fill="#707376"/>
<rect x="313" y="13" width="4" height="2" fill="#707376"/>
<rect x="313" y="62" width="4" height="2" fill="#707376"/>
<rect x="313" y="118" width="4" height="2" fill="#707376"/>
<rect x="313" y="165" width="4" height="2" fill="#707376"/>
<rect x="481" y="13" width="4" height="2" fill="#707376"/>
<rect x="481" y="62" width="4" height="2" fill="#707376"/>
<rect x="481" y="165" width="4" height="2" fill="#707376"/>
<rect x="337" y="13" width="4" height="2" fill="#707376"/>
<rect x="337" y="62" width="4" height="2" fill="#707376"/>
<rect x="505" y="13" width="4" height="2" fill="#707376"/>
<rect x="505" y="62" width="4" height="2" fill="#707376"/>
<rect x="505" y="118" width="4" height="2" fill="#707376"/>
<rect x="505" y="165" width="4" height="2" fill="#707376"/>
<rect x="361" y="13" width="4" height="2" fill="#707376"/>
<rect x="361" y="62" width="4" height="2" fill="#707376"/>
<rect x="361" y="118" width="4" height="2" fill="#707376"/>
<rect x="361" y="165" width="4" height="2" fill="#707376"/>
<rect x="529" y="13" width="4" height="2" fill="#707376"/>
<rect x="529" y="62" width="4" height="2" fill="#707376"/>
<rect x="529" y="165" width="4" height="2" fill="#707376"/>
<rect x="385" y="13" width="4" height="2" fill="#707376"/>
<rect x="385" y="62" width="4" height="2" fill="#707376"/>
<rect x="385" y="118" width="4" height="2" fill="#707376"/>
<rect x="385" y="165" width="4" height="2" fill="#707376"/>
<rect x="553" y="13" width="4" height="2" fill="#707376"/>
<rect x="553" y="62" width="4" height="2" fill="#707376"/>
<rect x="553" y="118" width="4" height="2" fill="#707376"/>
<rect x="553" y="165" width="4" height="2" fill="#707376"/>
<rect x="409" y="13" width="4" height="2" fill="#707376"/>
<rect x="409" y="62" width="4" height="2" fill="#707376"/>
<rect x="577" y="13" width="4" height="2" fill="#707376"/>
<rect x="577" y="62" width="4" height="2" fill="#707376"/>
<rect x="577" y="118" width="4" height="2" fill="#707376"/>
<rect x="585" y="118" width="4" height="2" fill="#707376"/>
<rect x="609" y="118" width="4" height="2" fill="#707376"/>
<rect x="577" y="165" width="4" height="2" fill="#707376"/>
<rect x="585" y="165" width="4" height="2" fill="#707376"/>
<rect x="641" y="13" width="4" height="2" fill="#707376"/>
<rect x="641" y="62" width="4" height="2" fill="#707376"/>
<rect x="641" y="118" width="4" height="2" fill="#707376"/>
<rect x="649" y="118" width="4" height="2" fill="#707376"/>
<rect x="641" y="165" width="4" height="2" fill="#707376"/>
<rect x="433" y="13" width="4" height="2" fill="#707376"/>
<rect x="433" y="62" width="4" height="2" fill="#707376"/>
<rect x="433" y="118" width="4" height="2" fill="#707376"/>
<rect x="433" y="165" width="4" height="2" fill="#707376"/>
<rect x="601" y="13" width="4" height="2" fill="#707376"/>
<rect x="601" y="62" width="4" height="2" fill="#707376"/>
<rect x="665" y="13" width="4" height="2" fill="#707376"/>
<rect x="665" y="62" width="4" height="2" fill="#707376"/>
<rect x="665" y="165" width="4" height="2" fill="#707376"/>
<rect x="457" y="13" width="4" height="2" fill="#707376"/>
<rect x="457" y="62" width="4" height="2" fill="#707376"/>
<rect x="457" y="118" width="4" height="2" fill="#707376"/>
<rect x="457" y="165" width="4" height="2" fill="#707376"/>
<rect x="625" y="13" width="4" height="2" fill="#707376"/>
<rect x="625" y="62" width="4" height="2" fill="#707376"/>
<rect x="625" y="118" width="4" height="2" fill="#707376"/>
<rect x="625" y="165" width="4" height="2" fill="#707376"/>
<rect x="689" y="13" width="4" height="2" fill="#707376"/>
<rect x="697" y="13" width="4" height="2" fill="#707376"/>
<rect x="689" y="62" width="4" height="2" fill="#707376"/>
<rect x="689" y="118" width="4" height="2" fill="#707376"/>
<rect x="689" y="165" width="4" height="2" fill="#707376"/>
<rect x="697" y="62" width="4" height="2" fill="#707376"/>
<rect x="697" y="118" width="4" height="2" fill="#707376"/>
<rect x="697" y="165" width="4" height="2" fill="#707376"/>
<rect x="26" y="109" width="20" height="55" rx="10" fill="#A9DED8"/>
<rect x="88" y="74" width="20" height="98" rx="10" fill="#48837D"/>
<rect x="150" y="73" width="20" height="74" rx="10" fill="#48837D"/>
<rect x="214" y="10" width="20" height="152" rx="10" fill="#A9DED8"/>
<rect x="276" y="73" width="20" height="99" rx="10" fill="#A9DED8"/>
<rect x="339" y="73" width="20" height="99" rx="10" fill="#48837D"/>
<rect x="400" y="73" width="21" height="98" rx="10.5" fill="#A9DED8"/>
<rect x="465" y="73" width="20" height="76" rx="10" fill="#48837D"/>
<rect x="527" y="111" width="20" height="52" rx="10" fill="#48837D"/>
<rect x="589" y="74" width="20" height="98" rx="10" fill="#A9DED8"/>
<rect x="651" y="112" width="21" height="52" rx="10.5" fill="#48837D"/>
<path d="M586.44 59V47.98L584.44 48.86V46.66L587.04 45.24H588.72V59H586.44ZM594.217 59.16C593.763 59.16 593.257 59.12 592.697 59.04C592.137 58.9733 591.643 58.88 591.217 58.76V56.86C592.203 57.02 593.063 57.1 593.797 57.1C594.583 57.1 595.143 57 595.477 56.8C595.81 56.5867 596.023 56.2 596.117 55.64C596.223 55.08 596.277 54.1333 596.277 52.8H596.157C595.983 53.08 595.723 53.3133 595.377 53.5C595.043 53.6733 594.53 53.76 593.837 53.76C593.09 53.76 592.503 53.6667 592.077 53.48C591.65 53.2933 591.323 52.9133 591.097 52.34C590.87 51.7533 590.757 50.8933 590.757 49.76C590.757 48.5067 590.857 47.5533 591.057 46.9C591.257 46.2467 591.623 45.78 592.157 45.5C592.703 45.22 593.503 45.08 594.557 45.08C595.343 45.08 595.97 45.14 596.437 45.26C596.917 45.38 597.303 45.6067 597.597 45.94C597.89 46.2733 598.11 46.76 598.257 47.4C598.47 48.32 598.577 49.8667 598.577 52.04C598.577 53.16 598.543 54.0933 598.477 54.84C598.423 55.5733 598.323 56.1933 598.177 56.7C597.923 57.5933 597.49 58.2267 596.877 58.6C596.263 58.9733 595.377 59.16 594.217 59.16ZM594.637 51.7C595.143 51.7 595.503 51.6533 595.717 51.56C595.93 51.4533 596.07 51.2733 596.137 51.02C596.203 50.7533 596.237 50.32 596.237 49.72C596.237 48.92 596.19 48.34 596.097 47.98C596.003 47.62 595.85 47.3933 595.637 47.3C595.437 47.1933 595.103 47.14 594.637 47.14C594.143 47.14 593.79 47.18 593.577 47.26C593.377 47.3267 593.23 47.5133 593.137 47.82C593.057 48.1267 593.017 48.6467 593.017 49.38C593.017 50.14 593.057 50.6733 593.137 50.98C593.217 51.2867 593.357 51.4867 593.557 51.58C593.77 51.66 594.13 51.7 594.637 51.7ZM604.229 59.16C602.976 59.16 602.083 58.9667 601.549 58.58C601.016 58.18 600.676 57.5333 600.529 56.64C600.396 55.7333 600.329 54.2267 600.329 52.12C600.329 50.0133 600.396 48.5133 600.529 47.62C600.676 46.7133 601.016 46.0667 601.549 45.68C602.083 45.28 602.976 45.08 604.229 45.08C605.483 45.08 606.376 45.28 606.909 45.68C607.443 46.0667 607.776 46.7133 607.909 47.62C608.043 48.5133 608.109 50.0133 608.109 52.12C608.109 54.2267 608.043 55.7333 607.909 56.64C607.776 57.5333 607.443 58.18 606.909 58.58C606.376 58.9667 605.483 59.16 604.229 59.16ZM604.229 57.1C604.789 57.1 605.169 57.02 605.369 56.86C605.569 56.6867 605.696 56.2867 605.749 55.66C605.816 55.0333 605.849 53.8533 605.849 52.12C605.849 50.3867 605.816 49.2067 605.749 48.58C605.696 47.9533 605.569 47.56 605.369 47.4C605.169 47.2267 604.789 47.14 604.229 47.14C603.669 47.14 603.289 47.2267 603.089 47.4C602.889 47.56 602.756 47.9533 602.689 48.58C602.636 49.2067 602.609 50.3867 602.609 52.12C602.609 53.8533 602.636 55.0333 602.689 55.66C602.756 56.2867 602.889 56.6867 603.089 56.86C603.289 57.02 603.669 57.1 604.229 57.1Z" fill="white"/>
<path d="M338.44 60V48.98L336.44 49.86V47.66L339.04 46.24H340.72V60H338.44ZM345.757 60.16C345.29 60.16 344.75 60.1267 344.137 60.06C343.523 59.9933 342.97 59.9133 342.477 59.82V57.92C343.583 58.04 344.523 58.1 345.297 58.1C345.87 58.1 346.303 58.06 346.597 57.98C346.89 57.9 347.11 57.7267 347.257 57.46C347.403 57.18 347.477 56.7467 347.477 56.16C347.477 55.5867 347.423 55.1533 347.317 54.86C347.21 54.5667 347.037 54.3667 346.797 54.26C346.57 54.14 346.243 54.08 345.817 54.08H343.957V52.02H345.817C346.19 52.02 346.483 51.9733 346.697 51.88C346.91 51.7867 347.07 51.6 347.177 51.32C347.297 51.04 347.357 50.62 347.357 50.06C347.357 49.4867 347.29 49.0667 347.157 48.8C347.037 48.5333 346.83 48.36 346.537 48.28C346.243 48.1867 345.79 48.14 345.177 48.14C344.377 48.14 343.49 48.2067 342.517 48.34V46.44C342.97 46.3333 343.503 46.2467 344.117 46.18C344.73 46.1133 345.283 46.08 345.777 46.08C347.163 46.08 348.15 46.3533 348.737 46.9C349.337 47.4333 349.637 48.36 349.637 49.68C349.637 50.6667 349.49 51.42 349.197 51.94C348.903 52.4467 348.457 52.78 347.857 52.94V53.02C348.51 53.1933 348.99 53.5267 349.297 54.02C349.603 54.5 349.757 55.28 349.757 56.36C349.757 57.2667 349.637 57.9933 349.397 58.54C349.157 59.0867 348.743 59.4933 348.157 59.76C347.583 60.0267 346.783 60.16 345.757 60.16ZM355.37 60.16C354.117 60.16 353.223 59.9667 352.69 59.58C352.157 59.18 351.817 58.5333 351.67 57.64C351.537 56.7333 351.47 55.2267 351.47 53.12C351.47 51.0133 351.537 49.5133 351.67 48.62C351.817 47.7133 352.157 47.0667 352.69 46.68C353.223 46.28 354.117 46.08 355.37 46.08C356.623 46.08 357.517 46.28 358.05 46.68C358.583 47.0667 358.917 47.7133 359.05 48.62C359.183 49.5133 359.25 51.0133 359.25 53.12C359.25 55.2267 359.183 56.7333 359.05 57.64C358.917 58.5333 358.583 59.18 358.05 59.58C357.517 59.9667 356.623 60.16 355.37 60.16ZM355.37 58.1C355.93 58.1 356.31 58.02 356.51 57.86C356.71 57.6867 356.837 57.2867 356.89 56.66C356.957 56.0333 356.99 54.8533 356.99 53.12C356.99 51.3867 356.957 50.2067 356.89 49.58C356.837 48.9533 356.71 48.56 356.51 48.4C356.31 48.2267 355.93 48.14 355.37 48.14C354.81 48.14 354.43 48.2267 354.23 48.4C354.03 48.56 353.897 48.9533 353.83 49.58C353.777 50.2067 353.75 51.3867 353.75 53.12C353.75 54.8533 353.777 56.0333 353.83 56.66C353.897 57.2867 354.03 57.6867 354.23 57.86C354.43 58.02 354.81 58.1 355.37 58.1Z" fill="white"/>
<path d="M28.24 100.16C27.7867 100.16 27.28 100.12 26.72 100.04C26.16 99.9733 25.6667 99.88 25.24 99.76V97.86C26.2267 98.02 27.0867 98.1 27.82 98.1C28.6067 98.1 29.1667 98 29.5 97.8C29.8333 97.5867 30.0467 97.2 30.14 96.64C30.2467 96.08 30.3 95.1333 30.3 93.8H30.18C30.0067 94.08 29.7467 94.3133 29.4 94.5C29.0667 94.6733 28.5533 94.76 27.86 94.76C27.1133 94.76 26.5267 94.6667 26.1 94.48C25.6733 94.2933 25.3467 93.9133 25.12 93.34C24.8933 92.7533 24.78 91.8933 24.78 90.76C24.78 89.5067 24.88 88.5533 25.08 87.9C25.28 87.2467 25.6467 86.78 26.18 86.5C26.7267 86.22 27.5267 86.08 28.58 86.08C29.3667 86.08 29.9933 86.14 30.46 86.26C30.94 86.38 31.3267 86.6067 31.62 86.94C31.9133 87.2733 32.1333 87.76 32.28 88.4C32.4933 89.32 32.6 90.8667 32.6 93.04C32.6 94.16 32.5667 95.0933 32.5 95.84C32.4467 96.5733 32.3467 97.1933 32.2 97.7C31.9467 98.5933 31.5133 99.2267 30.9 99.6C30.2867 99.9733 29.4 100.16 28.24 100.16ZM28.66 92.7C29.1667 92.7 29.5267 92.6533 29.74 92.56C29.9533 92.4533 30.0933 92.2733 30.16 92.02C30.2267 91.7533 30.26 91.32 30.26 90.72C30.26 89.92 30.2133 89.34 30.12 88.98C30.0267 88.62 29.8733 88.3933 29.66 88.3C29.46 88.1933 29.1267 88.14 28.66 88.14C28.1667 88.14 27.8133 88.18 27.6 88.26C27.4 88.3267 27.2533 88.5133 27.16 88.82C27.08 89.1267 27.04 89.6467 27.04 90.38C27.04 91.14 27.08 91.6733 27.16 91.98C27.24 92.2867 27.38 92.4867 27.58 92.58C27.7933 92.66 28.1533 92.7 28.66 92.7ZM38.2527 100.16C36.9993 100.16 36.106 99.9667 35.5727 99.58C35.0393 99.18 34.6993 98.5333 34.5527 97.64C34.4193 96.7333 34.3527 95.2267 34.3527 93.12C34.3527 91.0133 34.4193 89.5133 34.5527 88.62C34.6993 87.7133 35.0393 87.0667 35.5727 86.68C36.106 86.28 36.9993 86.08 38.2527 86.08C39.506 86.08 40.3993 86.28 40.9327 86.68C41.466 87.0667 41.7993 87.7133 41.9327 88.62C42.066 89.5133 42.1327 91.0133 42.1327 93.12C42.1327 95.2267 42.066 96.7333 41.9327 97.64C41.7993 98.5333 41.466 99.18 40.9327 99.58C40.3993 99.9667 39.506 100.16 38.2527 100.16ZM38.2527 98.1C38.8127 98.1 39.1927 98.02 39.3927 97.86C39.5927 97.6867 39.7193 97.2867 39.7727 96.66C39.8393 96.0333 39.8727 94.8533 39.8727 93.12C39.8727 91.3867 39.8393 90.2067 39.7727 89.58C39.7193 88.9533 39.5927 88.56 39.3927 88.4C39.1927 88.2267 38.8127 88.14 38.2527 88.14C37.6927 88.14 37.3127 88.2267 37.1127 88.4C36.9127 88.56 36.7793 88.9533 36.7127 89.58C36.6593 90.2067 36.6327 91.3867 36.6327 93.12C36.6327 94.8533 36.6593 96.0333 36.7127 96.66C36.7793 97.2867 36.9127 97.6867 37.1127 97.86C37.3127 98.02 37.6927 98.1 38.2527 98.1Z" fill="white"/>
</svg>
